<svg width="25" height="25" viewBox="0 0 25 25" fill="none" xmlns="http://www.w3.org/2000/svg">
<g clip-path="url(#clip0_212_11051)">
<path d="M10.6412 3.88779L2.17122 18.0278C1.99659 18.3302 1.90418 18.6731 1.90321 19.0223C1.90223 19.3715 1.99271 19.7149 2.16564 20.0183C2.33858 20.3217 2.58794 20.5745 2.88892 20.7516C3.18991 20.9287 3.53202 21.024 3.88122 21.0278H20.8212C21.1704 21.024 21.5125 20.9287 21.8135 20.7516C22.1145 20.5745 22.3639 20.3217 22.5368 20.0183C22.7097 19.7149 22.8002 19.3715 22.7992 19.0223C22.7983 18.6731 22.7058 18.3302 22.5312 18.0278L14.0612 3.88779C13.8829 3.5939 13.6319 3.35091 13.3324 3.18228C13.0329 3.01364 12.695 2.92505 12.3512 2.92505C12.0075 2.92505 11.6695 3.01364 11.37 3.18228C11.0705 3.35091 10.8195 3.5939 10.6412 3.88779Z" stroke="#0A31EB" stroke-width="2" stroke-linecap="round" stroke-linejoin="round"/>
<path d="M12.3512 9.02783V13.0278" stroke="#0A31EB" stroke-width="2" stroke-linecap="round" stroke-linejoin="round"/>
<path d="M12.3512 17.0278H12.3612" stroke="#0A31EB" stroke-width="2" stroke-linecap="round" stroke-linejoin="round"/>
</g>
<defs>
<clipPath id="clip0_212_11051">
<rect width="24" height="24" fill="white" transform="translate(0.351196 0.027832)"/>
</clipPath>
</defs>
</svg>
